<?xml version="1.0" encoding="utf-8"?>
<!-- Generator: Adobe Illustrator 26.0.1, SVG Export Plug-In . SVG Version: 6.00 Build 0)  -->
<svg version="1.1" id="Layer_1" xmlns="http://www.w3.org/2000/svg" xmlns:xlink="http://www.w3.org/1999/xlink" x="0px" y="0px"
	 viewBox="0 0 293.15 269.86" style="enable-background:new 0 0 293.15 269.86;" xml:space="preserve" width="121" height="110">
<style type="text/css">
	.st0{fill:#00594F;}
	.st1{fill:#A98C4D;}
</style>
<g>
	<g>
		<path class="st0" d="M157.59,18.87c1.27,1.26,2.29,2.69,3.07,4.23c1.63-0.53,3.36-0.83,5.15-0.83h0.54
			c-0.78-1.91-1.83-3.72-3.13-5.36c-2.1,0.25-4.11,0.79-5.99,1.59L157.59,18.87z"/>
		<path class="st0" d="M181.47,37.92c0,1.8-0.29,3.53-0.82,5.16c1.54,0.78,2.97,1.81,4.23,3.07l0.37,0.36
			c0.8-1.88,1.33-3.89,1.58-5.99c-1.66-1.31-3.46-2.35-5.36-3.12V37.92z"/>
		<path class="st0" d="M127.24,22.27c1.8,0,3.53,0.29,5.16,0.83c0.78-1.55,1.81-2.97,3.07-4.23l0.37-0.36
			c-1.88-0.8-3.89-1.34-5.99-1.59c-1.32,1.66-2.35,3.47-3.11,5.36H127.24z"/>
		<path class="st0" d="M108.18,46.15c1.26-1.27,2.69-2.29,4.23-3.07c-0.53-1.62-0.83-3.36-0.83-5.16V37.4
			c-1.89,0.77-3.7,1.81-5.36,3.12c0.25,2.1,0.79,4.11,1.58,5.99L108.18,46.15z"/>
		<path class="st1" d="M181.47,37.92V37.4c-4-1.62-8.4-2.01-12.58-1.18l-0.25,0.87c-0.59,2.06-1.48,4.03-2.61,5.86
			c2.21-1.06,4.64-1.64,7.16-1.64c2.64,0,5.17,0.62,7.46,1.77C181.17,41.46,181.47,39.72,181.47,37.92"/>
		<path class="st1" d="M160.66,23.1c-0.78-1.54-1.8-2.97-3.07-4.23l-0.36-0.36c-3.99,1.69-7.37,4.52-9.74,8.08l0.44,0.79
			c1.04,1.88,1.8,3.89,2.3,5.97C151.92,28.51,155.8,24.7,160.66,23.1"/>
		<path class="st1" d="M126.72,22.27c-1.62,4.01-2.01,8.4-1.18,12.6l0.87,0.25c2.07,0.59,4.03,1.47,5.85,2.6
			c-1.06-2.21-1.65-4.64-1.65-7.16c0-2.64,0.62-5.17,1.77-7.46c-1.62-0.53-3.36-0.83-5.16-0.83"/>
		<path class="st1" d="M127.24,22.27"/>
		<path class="st1" d="M146.53,7.8l9.48,9.48l0.6-0.25c1.72-0.73,3.52-1.24,5.38-1.54c-0.17-0.18-0.32-0.35-0.5-0.53L146.53,0
			l-14.97,14.96c-0.62,0.62-1.19,1.28-1.72,1.95c2.1,0.25,4.11,0.79,5.99,1.59L146.53,7.8z"/>
		<path class="st1" d="M111.59,37.4V22.27H125l0.24-0.6c0.7-1.73,1.62-3.37,2.72-4.9c-0.24-0.01-0.48-0.02-0.72-0.02h-21.16v21.17
			c0,0.88,0.06,1.74,0.16,2.6C107.89,39.21,109.7,38.17,111.59,37.4"/>
		<path class="st1" d="M149.29,48.36v-9.56c0-3.87-1.01-7.5-2.76-10.66c-2.11-3.8-5.31-6.91-9.17-8.92l-0.76,0.77
			c-1.09,1.09-2,2.34-2.7,3.7c5.81,2.57,9.88,8.37,9.88,15.12v9.5l2.78,2.78L149.29,48.36z"/>
		<path class="st1" d="M145.45,52.2l-9.99-9.96c-2.73-2.74-6.01-4.59-9.49-5.59c-4.18-1.19-8.64-1.13-12.79,0.18v1.09
			c0,1.53,0.24,3.05,0.7,4.52c1.88-0.74,3.9-1.13,5.98-1.13c4.42,0,8.57,1.72,11.69,4.84l9.98,9.96L145.45,52.2z"/>
		<path class="st1" d="M167.1,36.65L167.1,36.65c0.56-1.96,0.86-4,0.86-6.09c0-2.31-0.37-4.55-1.05-6.69h-1.09
			c-1.53,0-3.05,0.24-4.51,0.71c0.73,1.88,1.13,3.9,1.13,5.98c0,4.41-1.72,8.56-4.84,11.69h-0.01l-26.03,26.03
			c-3.12,3.12-7.27,4.85-11.69,4.85s-8.57-1.72-11.69-4.85L97.12,57.21l9.48-9.49l-0.25-0.59c-0.72-1.71-1.23-3.52-1.54-5.38
			c-0.18,0.16-0.35,0.32-0.53,0.49L89.32,57.21l14.97,14.96c4.16,4.16,9.71,6.46,15.59,6.46c5.89,0,11.43-2.29,15.59-6.46
			l26.03-26.03C164.18,43.46,166.08,40.21,167.1,36.65"/>
		<path class="st1" d="M112.42,43.08c-1.54,0.78-2.97,1.81-4.23,3.07l-0.37,0.36c3.36,7.9,11.19,13.46,20.31,13.46h9.56l2.75-2.76
			l-2.76-2.76h-9.55C120.81,54.46,114.59,49.68,112.42,43.08"/>
		<path class="st1" d="M155.44,54.46l-2.77,2.77l2.75,2.75h9.53c8.5,0,15.9-4.85,19.58-11.93l-0.77-0.77
			c-1.09-1.09-2.33-1.99-3.69-2.7c-2.56,5.81-8.37,9.88-15.11,9.88H155.44z"/>
		<path class="st1" d="M188.78,42.25c-0.62-0.62-1.28-1.19-1.94-1.73c-0.26,2.1-0.79,4.11-1.59,5.99l10.7,10.7l-11.07,11.06
			c-3.12,3.12-7.27,4.85-11.69,4.85c-4.42,0-8.57-1.72-11.69-4.85l-8.31-8.3h0.02l-1.65-1.64v0.01l-3.9,3.9l9.94,9.94
			c4.16,4.16,9.71,6.46,15.59,6.46c5.89,0,11.43-2.29,15.59-6.46l14.97-14.96L188.78,42.25z"/>
		<path class="st1" d="M181.47,22.27v13.41l0.6,0.25c1.73,0.7,3.38,1.62,4.89,2.72c0.01-0.24,0.03-0.48,0.03-0.72V16.76h-21.17
			c-0.88,0-1.74,0.06-2.6,0.16c1.3,1.64,2.35,3.45,3.13,5.36H181.47z"/>
	</g>
	<g>
		<rect x="120.45" y="136.78" class="st0" width="5.71" height="5.71"/>
		<rect x="129.01" y="136.78" class="st0" width="5.71" height="5.71"/>
		<rect x="63.36" y="90.52" class="st0" width="5.71" height="5.71"/>
		<rect x="282.49" y="90.51" class="st0" width="5.55" height="40.64"/>
		<path class="st0" d="M190.93,96.35v26.73c0,2.77-0.98,5.13-2.96,7.11c-1.95,1.97-4.33,2.96-7.11,2.96h-0.03h-6.56v5.72h6.56v0
			h0.03c4.36,0,8.08-1.54,11.17-4.62c3.08-3.09,4.62-6.81,4.62-11.17V96.35H190.93z"/>
		<path class="st0" d="M152.93,102.81v12.55c0,2.77-0.98,5.14-2.96,7.11c-1.95,1.97-4.32,2.96-7.11,2.96h-0.03H99.85v-34.9h-5.53
			v40.54h0.02v0.09h48.49v-0.01h0.03c4.36,0,8.08-1.54,11.17-4.62c3.08-3.08,4.63-6.81,4.63-11.17v-12.55H152.93z"/>
		<path class="st0" d="M63.63,102.81v12.55c0,2.77-0.98,5.14-2.96,7.11c-1.95,1.97-4.33,2.96-7.11,2.96h-0.03H10.55v-34.9H5.02
			v40.54h0.02v0.09h48.49v-0.01h0.03c4.36,0,8.08-1.54,11.17-4.62c3.08-3.08,4.62-6.81,4.62-11.17v-12.55H63.63z"/>
		<path class="st0" d="M251.87,96.36L251.87,96.36L251.87,96.36H241.8c-4.36,0-8.08,1.54-11.17,4.62
			c-3.08,3.08-4.63,6.81-4.63,11.17c0,3.43,0.99,6.44,2.88,9.08h-0.03c0.03,0.05,0.08,0.09,0.12,0.14c0.04,0.05,0.07,0.11,0.11,0.16
			h0.03c0.46,0.61,0.95,1.22,1.51,1.78c0.17,0.17,0.33,0.31,0.5,0.46c0.32,0.3,0.64,0.59,0.98,0.85c0.17,0.13,0.33,0.25,0.49,0.37
			c0.42,0.31,0.85,0.59,1.31,0.86c1.91,1.12,4.01,1.81,6.3,2.02l4.5-5.65h-2.91c-1.34,0-2.61-0.27-3.78-0.74
			c-1.21-0.49-2.32-1.21-3.34-2.22c-1.97-1.95-2.96-4.33-2.96-7.11c0-2.79,0.99-5.16,2.96-7.11c1.98-1.98,4.34-2.96,7.11-2.96h4.35
			v21c0,2.77-0.98,5.13-2.96,7.11c-1.96,1.97-4.33,2.96-7.11,2.96h-0.04h-6.56v5.72h6.56v0h0.04c4.36,0,8.08-1.54,11.17-4.62
			c3.08-3.09,4.62-6.81,4.62-11.17L251.87,96.36z"/>
		<polygon class="st1" points="288.03,96.23 282.49,101.79 282.49,90.5 288.03,90.5 		"/>
	</g>
	<g>
		<rect x="118.89" y="151.95" class="st0" width="5.55" height="40.69"/>
		<path class="st0" d="M10.63,186.67c-3.97-3.98-5.97-8.78-5.97-14.4c0-5.58,2-10.37,5.97-14.37c3.98-3.96,8.79-5.95,14.4-5.95
			c5.58,0,10.38,1.98,14.37,5.95c3.96,4,5.95,8.79,5.95,14.37c0,5.62-1.99,10.42-5.95,14.4c-3.99,3.98-8.79,5.97-14.37,5.97
			C19.42,192.64,14.6,190.64,10.63,186.67 M14.41,161.68c-2.92,2.93-4.38,6.46-4.38,10.59c0,4.15,1.46,7.69,4.38,10.63
			c2.94,2.91,6.48,4.37,10.62,4.37c4.13,0,7.66-1.46,10.6-4.37c2.93-2.94,4.4-6.48,4.4-10.63c0-4.12-1.47-7.66-4.4-10.59
			c-2.94-2.94-6.46-4.4-10.6-4.4C20.88,157.27,17.35,158.74,14.41,161.68"/>
		<polygon class="st0" points="232.85,192.64 208.78,166.02 208.78,192.64 203.29,192.64 203.29,151.95 227.38,178.14 
			227.38,151.95 232.85,151.95 		"/>
		<polygon class="st0" points="163.66,167.02 173.99,192.64 179.97,192.64 163.66,151.88 147.37,192.64 153.41,192.64 		"/>
		<polygon class="st0" points="272.09,167.02 282.41,192.64 288.4,192.64 272.09,151.88 255.8,192.64 261.84,192.64 		"/>
		<path class="st0" d="M86.96,181.65c1.31-0.74,2.5-1.65,3.58-2.71c3.08-3.09,4.62-6.82,4.62-11.19c0-4.36-1.54-8.09-4.62-11.17
			c-3.09-3.08-6.81-4.62-11.17-4.62H69.3v40.68h5.75v-34.96h4.33c2.77,0,5.14,0.98,7.1,2.95c1.98,1.96,2.96,4.33,2.96,7.12
			c0,2.78-0.98,5.15-2.96,7.11c-1.97,1.97-4.33,2.96-7.1,2.96h-2.92l11.81,14.82h7.32L86.96,181.65z"/>
		<polygon class="st1" points="124.44,157.68 118.89,163.23 118.89,151.95 124.44,151.95 		"/>
	</g>
	<g>
		<path class="st0" d="M31.79,245.87h0.74h0.74l5.8,13.49h-0.74h-0.74l-1.92-4.56h-6.33l-1.91,4.56h-0.71H26L31.79,245.87z
			 M29.85,253.58h5.33l-2.69-6.32h0.01L29.85,253.58z"/>
		<path class="st0" d="M46.02,259.36v-13.49h7.39v0.61v0.61h-6.04v4.85h5.85v0.61v0.61h-5.85v4.98h6.04v0.61v0.61H46.02z"/>
		<path class="st0" d="M66.99,249.31c-0.08-0.75-0.34-1.35-0.78-1.79c-0.44-0.44-1-0.66-1.67-0.66c-0.69,0-1.27,0.22-1.75,0.66
			c-0.48,0.44-0.71,0.98-0.71,1.61c0,0.62,0.21,1.11,0.62,1.49c0.42,0.37,1.12,0.69,2.12,0.96c1.33,0.36,2.3,0.87,2.9,1.52
			c0.6,0.65,0.9,1.52,0.9,2.59c0,1.09-0.4,2.02-1.19,2.77c-0.8,0.76-1.77,1.14-2.92,1.14c-1.22,0-2.22-0.37-2.98-1.11
			c-0.76-0.74-1.14-1.71-1.14-2.89h1.34c0.1,0.91,0.39,1.61,0.86,2.08c0.47,0.48,1.11,0.71,1.92,0.71c0.78,0,1.45-0.25,1.99-0.76
			c0.54-0.51,0.81-1.13,0.81-1.86c0-0.76-0.24-1.37-0.71-1.82c-0.47-0.45-1.27-0.82-2.4-1.13c-1.2-0.33-2.08-0.78-2.62-1.35
			c-0.54-0.57-0.82-1.32-0.82-2.26c0-1,0.37-1.84,1.1-2.53c0.73-0.69,1.62-1.03,2.68-1.03c1.07,0,1.97,0.35,2.69,1.05
			c0.72,0.7,1.08,1.57,1.08,2.62H66.99z"/>
		<path class="st0" d="M77.75,247.09h-3.09v-0.61v-0.61h7.54v0.61v0.61H79.1v12.27h-0.68h-0.68V247.09z"/>
		<path class="st0" d="M89.18,245.87h0.68h0.68v5.94h6.97v-5.94h0.68h0.68v13.49h-0.68h-0.68v-6.33h-6.97v6.33h-0.68h-0.68V245.87z"
			/>
		<path class="st0" d="M106.99,259.36v-13.49h7.39v0.61v0.61h-6.04v4.85h5.85v0.61v0.61h-5.85v4.98h6.04v0.61v0.61H106.99z"/>
		<path class="st0" d="M124.17,247.09h-3.09v-0.61v-0.61h7.54v0.61v0.61h-3.09v12.27h-0.68h-0.68V247.09z"/>
		<path class="st0" d="M135.6,245.87h0.68h0.68v13.49h-0.68h-0.68V245.87z"/>
		<path class="st0" d="M157.87,255.83c-0.49,1.09-1.32,1.99-2.49,2.7c-1.16,0.71-2.4,1.06-3.7,1.06c-1.98,0-3.66-0.67-5.04-2.02
			c-1.38-1.35-2.06-3-2.06-4.95c0-1.95,0.69-3.61,2.06-4.96c1.37-1.35,3.05-2.03,5.04-2.03c1.27,0,2.47,0.35,3.61,1.04
			c1.14,0.69,1.95,1.58,2.44,2.65h-1.46c-0.43-0.73-1.07-1.33-1.93-1.79c-0.86-0.46-1.74-0.69-2.66-0.69c-1.6,0-2.96,0.56-4.07,1.67
			c-1.11,1.12-1.66,2.48-1.66,4.1c0,1.62,0.55,2.98,1.66,4.09c1.11,1.11,2.46,1.67,4.07,1.67c0.94,0,1.86-0.24,2.74-0.72
			c0.88-0.48,1.54-1.09,1.98-1.84H157.87z"/>
		<path class="st0" d="M188.69,255.83c-0.49,1.09-1.32,1.99-2.49,2.7c-1.16,0.71-2.4,1.06-3.7,1.06c-1.98,0-3.66-0.67-5.04-2.02
			c-1.38-1.35-2.06-3-2.06-4.95c0-1.95,0.69-3.61,2.06-4.96c1.37-1.35,3.05-2.03,5.04-2.03c1.27,0,2.47,0.35,3.61,1.04
			c1.14,0.69,1.95,1.58,2.44,2.65h-1.46c-0.43-0.73-1.07-1.33-1.93-1.79c-0.86-0.46-1.74-0.69-2.66-0.69c-1.6,0-2.96,0.56-4.07,1.67
			c-1.11,1.12-1.66,2.48-1.66,4.1c0,1.62,0.55,2.98,1.66,4.09c1.11,1.11,2.46,1.67,4.07,1.67c0.94,0,1.86-0.24,2.74-0.72
			c0.88-0.48,1.54-1.09,1.98-1.84H188.69z"/>
		<path class="st0" d="M196.42,259.36v-13.49h0.68h0.68v12.27h5.58v0.61v0.61H196.42z"/>
		<path class="st0" d="M210.21,245.87h0.68h0.68v13.49h-0.68h-0.68V245.87z"/>
		<path class="st0" d="M221.14,259.36h-0.68h-0.68v-13.49h0.92h0.93l7.54,11.15v-11.15h0.68h0.68v13.49h-0.68h-0.69l-8.02-11.85
			V259.36z"/>
		<path class="st0" d="M238.78,245.87h0.68h0.68v13.49h-0.68h-0.68V245.87z"/>
		<path class="st0" d="M261.05,255.83c-0.49,1.09-1.32,1.99-2.49,2.7c-1.16,0.71-2.4,1.06-3.7,1.06c-1.98,0-3.66-0.67-5.04-2.02
			c-1.38-1.35-2.06-3-2.06-4.95c0-1.95,0.69-3.61,2.06-4.96c1.37-1.35,3.05-2.03,5.04-2.03c1.27,0,2.47,0.35,3.61,1.04
			c1.14,0.69,1.95,1.58,2.44,2.65h-1.46c-0.43-0.73-1.07-1.33-1.93-1.79c-0.86-0.46-1.74-0.69-2.66-0.69c-1.6,0-2.96,0.56-4.07,1.67
			c-1.11,1.12-1.66,2.48-1.66,4.1c0,1.62,0.55,2.98,1.66,4.09c1.11,1.11,2.46,1.67,4.07,1.67c0.94,0,1.86-0.24,2.74-0.72
			c0.88-0.48,1.54-1.09,1.98-1.84H261.05z"/>
	</g>
	<g>
		<path class="st0" d="M44.23,224.21h-2.61c-0.77,0-1.43-0.14-1.98-0.44c-0.27,1.72-1.07,3.07-2.39,4.06
			c-1.37,1-3.16,1.49-5.33,1.49c-4.84,0-7.25-2.42-7.25-7.27v-4.04h1.62v3.95c0,2.02,0.52,3.65,1.54,4.88
			c1.02,1.23,2.53,1.86,4.48,1.86c1.59,0,2.94-0.6,4.07-1.81c1.13-1.18,1.7-2.76,1.7-4.71v-9.66l-0.47-2.86l2.09-0.44v11.47
			c0,1.6,0.85,2.42,2.56,2.42h1.98V224.21z"/>
		<path class="st0" d="M47.19,224.21h-3.74v-1.14h3.74V224.21z"/>
		<path class="st0" d="M50.05,224.21h-3.74v-1.14h3.74V224.21z"/>
		<path class="st0" d="M52.9,224.21h-3.74v-1.14h3.74V224.21z"/>
		<path class="st0" d="M55.76,224.21h-3.74v-1.14h3.74V224.21z"/>
		<path class="st0" d="M58.62,224.21h-3.74v-1.14h3.74V224.21z"/>
		<path class="st0" d="M61.47,224.21h-3.74v-1.14h3.74V224.21z"/>
		<path class="st0" d="M70.46,224.21h-1.73c-1.18,0-2.09-0.33-2.75-0.98c-0.63,0.65-1.48,0.98-2.58,0.98h-3v-1.11h2.23
			c1.7,0,2.56-0.84,2.56-2.51v-2.86l-0.44-2.93l2.12-0.44v6.25c0,1.65,0.82,2.48,2.5,2.48h1.1V224.21z M63.29,228.35
			c0,0.65-0.41,0.98-1.21,0.98c-0.8,0-1.21-0.33-1.21-1c0-0.67,0.41-1.02,1.21-1.02C62.71,227.3,63.29,227.77,63.29,228.35z
			 M66.91,228.35c0,0.65-0.41,0.98-1.24,0.98c-0.8,0-1.21-0.33-1.21-1c0-0.67,0.41-1.02,1.21-1.02
			C66.37,227.3,66.91,227.77,66.91,228.35z"/>
		<path class="st0" d="M73.51,224.21h-3.74v-1.14h3.74V224.21z"/>
		<path class="st0" d="M76.36,224.21h-3.74v-1.14h3.74V224.21z"/>
		<path class="st0" d="M79.22,224.21h-3.74v-1.14h3.74V224.21z"/>
		<path class="st0" d="M82.08,224.21h-3.74v-1.14h3.74V224.21z"/>
		<path class="st0" d="M98.92,224.21h-2.28c-1.02,0-1.92-0.35-2.75-1.02c-1.07,1.46-2.91,2.46-4.67,2.46c-1.57,0-2.72-0.7-3.43-2.11
			c-0.61,0.44-1.35,0.67-2.25,0.67h-2.28v-1.11h1.54c1.59,0,2.42-0.7,2.47-2.09c0.11-3.53,2.5-5.67,6.32-5.67
			c1.24,0,2.36,0.14,3.38,0.44l-0.25,2.25v2.55c-0.03,1.67,0.82,2.51,2.56,2.51h1.65V224.21z M93.07,223.03v-4.83l-0.28-1.76
			c-0.69-0.16-1.29-0.26-1.81-0.26c-1.35,0-2.39,0.44-3.08,1.32c-0.63,0.77-0.93,1.79-0.93,3.09c0,2.3,1.13,3.88,2.88,3.88
			C91.09,224.47,92.16,223.98,93.07,223.03z"/>
		<path class="st0" d="M101.97,224.21h-3.74v-1.14h3.74V224.21z"/>
		<path class="st0" d="M104.83,224.21h-3.74v-1.14h3.74V224.21z"/>
		<path class="st0" d="M107.68,224.21h-3.74v-1.14h3.74V224.21z"/>
		<path class="st0" d="M110.54,224.21h-3.74v-1.14h3.74V224.21z"/>
		<path class="st0" d="M126.75,224.21h-17.09v-1.11l13.66-0.02c-0.5-1.51-1.46-3.16-2.89-4.99c-1.73-2.21-3.33-3.32-4.75-3.32
			c-0.99,0-1.79,0.7-1.79,1.88c0,0.39,0.11,0.86,0.3,1.35l-1.57,0.19c0.25-2.72,1.92-4.37,4.04-4.37c1.79,0,3.63,1.21,5.58,3.6
			c1.57,1.95,2.67,3.83,3.27,5.67h1.24V224.21z M118.95,228.35c0,0.67-0.38,1.02-1.18,1.02c-0.8,0-1.21-0.35-1.21-1.02
			c0-0.7,0.41-1.04,1.21-1.04C118.4,227.3,118.95,227.77,118.95,228.35z"/>
		<path class="st0" d="M129.91,224.21h-3.74v-1.14h3.74V224.21z"/>
		<path class="st0" d="M132.76,224.21h-3.74v-1.14h3.74V224.21z"/>
		<path class="st0" d="M135.62,224.21h-3.74v-1.14h3.74V224.21z"/>
		<path class="st0" d="M138.48,224.21h-3.74v-1.14h3.74V224.21z"/>
		<path class="st0" d="M141.34,224.21h-3.74v-1.14h3.74V224.21z"/>
		<path class="st0" d="M150.32,224.21h-1.73c-1.18,0-2.09-0.33-2.75-0.98c-0.63,0.65-1.48,0.98-2.58,0.98h-3v-1.11h2.23
			c1.7,0,2.56-0.84,2.56-2.51v-2.86l-0.44-2.93l2.12-0.44v6.25c0,1.65,0.82,2.48,2.5,2.48h1.1V224.21z M144.03,210.25
			c0,0.65-0.41,0.98-1.24,0.98c-0.8,0-1.21-0.33-1.21-1c0-0.67,0.41-1.02,1.21-1.02C143.48,209.21,144.03,209.67,144.03,210.25z
			 M147.66,210.25c0,0.65-0.41,0.98-1.21,0.98c-0.8,0-1.21-0.33-1.21-1c0-0.67,0.41-1.02,1.21-1.02
			C147.11,209.21,147.66,209.67,147.66,210.25z"/>
		<path class="st0" d="M153.37,224.21h-3.74v-1.14h3.74V224.21z"/>
		<path class="st0" d="M156.23,224.21h-3.74v-1.14h3.74V224.21z"/>
		<path class="st0" d="M159.08,224.21h-3.74v-1.14h3.74V224.21z"/>
		<path class="st0" d="M161.94,224.21h-3.74v-1.14h3.74V224.21z"/>
		<path class="st0" d="M169.08,221.01c0,2.02-1.35,3.21-3.54,3.21h-4.59v-1.11h3.93c1.73,0,2.58-0.84,2.58-2.51v-8.08l-0.44-2.86
			l2.06-0.44V221.01z"/>
		<path class="st0" d="M174.63,209.21l-0.25,2.76v12.24h-1.65v-12.24l-0.38-2.6L174.63,209.21z"/>
		<path class="st0" d="M202.41,214.5l-0.27,2.28v3.72c-0.08,0.21-0.33,0.7-0.77,1.42c-1.18,1.65-2.67,2.46-4.42,2.46
			c-1.24,0-2.23-0.4-3.02-1.21c-0.85-0.91-1.26-2.04-1.21-3.44c0.14-3.53,2.5-5.67,6.32-5.67
			C200.26,214.06,201.39,214.2,202.41,214.5z M200.49,221.77v-4.85l-0.25-1.76c-0.69-0.16-1.29-0.26-1.81-0.26
			c-1.35,0-2.39,0.44-3.08,1.32c-0.6,0.77-0.91,1.81-0.91,3.09c0,2.3,1.1,3.88,2.88,3.88C198.53,223.19,199.58,222.73,200.49,221.77
			z M198.26,210.25c0,0.67-0.38,1.02-1.18,1.02c-0.85,0-1.26-0.35-1.26-1.05c0-0.67,0.41-1.02,1.26-1.02
			C197.71,209.21,198.26,209.67,198.26,210.25z M201.89,210.25c0,0.67-0.41,1.02-1.21,1.02c-0.8,0-1.21-0.35-1.21-1.05
			c0-0.67,0.41-1.02,1.21-1.02C201.34,209.21,201.89,209.67,201.89,210.25z"/>
		<path class="st0" d="M214.91,224.21h-9.59l0.3-1.11h7.28l0.05-0.44v-3.79c0-2.25-1.02-3.72-2.45-3.72c-0.38,0-0.77,0.09-1.13,0.26
			l0.16-1.35c1.48,0,2.69,0.49,3.63,1.46c0.93,0.95,1.4,2.21,1.43,3.76v3.34L214.91,224.21z"/>
		<path class="st0" d="M224.55,224.21h-2.36c-2.34,0-3.52-1.07-3.52-3.21v-8.59l-0.44-2.76l2.09-0.42v11.36
			c0,1.67,0.85,2.51,2.53,2.51h1.7V224.21z"/>
		<path class="st0" d="M227.54,224.21h-3.74v-1.14h3.74V224.21z"/>
		<path class="st0" d="M230.4,224.21h-3.74v-1.14h3.74V224.21z"/>
		<path class="st0" d="M233.26,224.21h-3.74v-1.14h3.74V224.21z"/>
		<path class="st0" d="M236.12,224.21h-3.74v-1.14h3.74V224.21z"/>
		<path class="st0" d="M245.1,224.21h-1.73c-1.18,0-2.09-0.33-2.75-0.98c-0.63,0.65-1.48,0.98-2.58,0.98h-3v-1.11h2.23
			c1.7,0,2.56-0.84,2.56-2.51v-2.86l-0.44-2.93l2.12-0.44v6.25c0,1.65,0.82,2.48,2.5,2.48h1.1V224.21z M237.93,228.35
			c0,0.65-0.41,0.98-1.21,0.98c-0.8,0-1.21-0.33-1.21-1c0-0.67,0.41-1.02,1.21-1.02C237.35,227.3,237.93,227.77,237.93,228.35z
			 M241.55,228.35c0,0.65-0.41,0.98-1.24,0.98c-0.8,0-1.21-0.33-1.21-1c0-0.67,0.41-1.02,1.21-1.02
			C241.01,227.3,241.55,227.77,241.55,228.35z"/>
		<path class="st0" d="M248.15,224.21h-3.74v-1.14h3.74V224.21z"/>
		<path class="st0" d="M251.01,224.21h-3.74v-1.14h3.74V224.21z"/>
		<path class="st0" d="M253.86,224.21h-3.74v-1.14h3.74V224.21z"/>
		<path class="st0" d="M256.72,224.21h-3.74v-1.14h3.74V224.21z"/>
		<path class="st0" d="M269.06,224.21h-13.22v-1.11h5.17c-1.21-0.86-1.81-2.09-1.81-3.69c0-1.49,0.47-2.72,1.4-3.67
			c0.96-0.98,2.12-1.46,3.52-1.46c1.4,0,2.78,0.44,4.15,1.35l-0.44,0.56c-1.02-0.58-2.03-0.86-3.05-0.86c-2.42,0-3.93,1.7-3.93,4.27
			c0,1.11,0.36,2,1.1,2.62c0.66,0.58,1.48,0.88,2.45,0.88h1.4l3.05-0.33L269.06,224.21z"/>
	</g>
</g>
</svg>
