<?xml version="1.0" encoding="iso-8859-1"?>
<svg version="1.1" id="Layer_1" xmlns="http://www.w3.org/2000/svg" xmlns:xlink="http://www.w3.org/1999/xlink" x="0px" y="0px"
	 viewBox="-49 141 512 512" style="enable-background:new -49 141 512 512;" xml:space="preserve" width="30" height="30">
<path style="fill:#55ACEE;" d="M332.6,145H81.4C11.8,145-45,201.8-45,271.4V523c0,69.2,56.8,126,126.4,126H333
	c69.6,0,126.4-56.8,126.4-126.4V271.4C459,201.8,402.2,145,332.6,145z M332.2,333.8c0,2.8,0,5.6,0,8.4c0,84-64.8,180.8-183.6,180.8
	c-36.4,0-70.4-10.4-98.8-28.4c5.2,0.4,10,0.8,15.2,0.8c30.4,0,58-10,80-27.2c-28.4-0.4-52-18.8-60.4-44c4,0.8,8,1.2,12,1.2
	c6,0,12-0.8,17.2-2.4C85,417,63,391.4,63,360.6v-0.8c8,4.8,18.4,7.6,28.8,8C74.6,356.6,63,337,63,315c0-11.6,3.2-22.4,8.8-32
	c32,38.4,79.2,63.6,132.8,66.4c-1.2-4.8-1.6-9.6-1.6-14.4c0-35.2,28.8-63.6,64.4-63.6c18.4,0,35.2,7.6,47.2,20
	c14.8-2.8,28.4-8,40.8-15.6c-4.8,14.8-15.2,27.2-28.4,35.2c13.2-1.6,25.6-4.8,37.2-10C355.4,313.8,344.6,325,332.2,333.8z"/>
</svg>
